<?xml version="1.0" encoding="UTF-8"?>
<svg width="512" height="512" viewBox="0 0 512 512" fill="none" xmlns="http://www.w3.org/2000/svg">
  <!-- Tooth shape -->
  <path
    d="M256 64C185.308 64 128 121.308 128 192c0 70.692 57.308 128 128 128s128-57.308 128-128c0-70.692-57.308-128-128-128zM256 288c-52.935 0-96-43.065-96-96s43.065-96 96-96 96 43.065 96 96-43.065 96-96 96z"
    fill="url(#gradient1)"
  />
  <!-- Connected circles representing unification -->
  <circle cx="192" cy="384" r="32" fill="url(#gradient2)" />
  <circle cx="320" cy="384" r="32" fill="url(#gradient2)" />
  <path
    d="M192 384h128"
    stroke="url(#gradient2)"
    stroke-width="16"
    stroke-linecap="round"
  />
  <!-- Gradients -->
  <defs>
    <linearGradient id="gradient1" x1="128" y1="64" x2="384" y2="320" gradientUnits="userSpaceOnUse">
      <stop offset="0%" stop-color="#3B82F6"/>
      <stop offset="100%" stop-color="#14B8A6"/>
    </linearGradient>
    <linearGradient id="gradient2" x1="192" y1="352" x2="320" y2="416" gradientUnits="userSpaceOnUse">
      <stop offset="0%" stop-color="#3B82F6"/>
      <stop offset="100%" stop-color="#14B8A6"/>
    </linearGradient>
  </defs>
</svg> 